<svg xmlns="http://www.w3.org/2000/svg" fill="none" viewBox="0 0 20 20"><path fill="currentColor" d="M6.48 16.21c0 .08-.09.142-.203.142-.129.011-.218-.051-.218-.141 0-.078.09-.14.203-.14.117-.012.218.05.218.14Zm-1.214-.175c-.028.078.05.168.168.192.101.039.218 0 .242-.079.023-.078-.051-.168-.168-.203-.102-.027-.215.012-.242.09Zm1.726-.066c-.113.027-.191.101-.18.191.012.078.114.13.231.102.113-.028.191-.102.18-.18-.012-.074-.118-.125-.23-.113ZM9.562 1C4.146 1 0 5.113 0 10.531c0 4.332 2.727 8.04 6.621 9.344.5.09.676-.219.676-.473 0-.242-.012-1.578-.012-2.398 0 0-2.734.586-3.308-1.164 0 0-.446-1.137-1.086-1.43 0 0-.895-.613.062-.601 0 0 .973.078 1.508 1.007.855 1.508 2.289 1.075 2.848.817.09-.625.343-1.059.625-1.317-2.184-.242-4.387-.558-4.387-4.316 0-1.074.297-1.613.922-2.3-.102-.255-.434-1.302.101-2.653.817-.254 2.696 1.055 2.696 1.055a9.178 9.178 0 0 1 2.453-.332c.832 0 1.672.113 2.453.332 0 0 1.879-1.313 2.695-1.055.535 1.355.203 2.398.102 2.652.625.692 1.008 1.23 1.008 2.301 0 3.77-2.301 4.07-4.485 4.316.36.309.664.895.664 1.813 0 1.316-.011 2.945-.011 3.265 0 .254.18.563.675.473 3.907-1.297 6.555-5.004 6.555-9.336C19.375 5.113 14.98 1 9.562 1ZM3.798 14.473c-.05.039-.04.129.027.203.063.062.153.09.203.039.051-.04.04-.13-.027-.203-.063-.063-.152-.09-.203-.04Zm-.422-.317c-.027.051.012.114.09.153.062.039.14.027.168-.028.027-.05-.012-.113-.09-.152-.078-.024-.14-.012-.168.027Zm1.266 1.39c-.063.052-.04.169.05.243.09.09.204.102.254.04.051-.052.028-.169-.05-.243-.086-.09-.204-.102-.254-.04Zm-.446-.573c-.062.039-.062.14 0 .23.063.09.168.129.22.09.062-.05.062-.152 0-.242-.056-.09-.157-.13-.22-.078Z"/></svg>